# xmcd CD database file
#
# Track frame offsets:
#	150
#	25417
#	46326
#	67567
#	87272
#	106836
#	125760
#	149588
#	171320
#	204462
#	230970
#	259383
#	272964
#
# Disc length: 4094 seconds
#
# Revision: 0
# Processed by: cddbd v1.5.2PL0 Copyright (c) Steve Scherf et al.
# Submitted via: CDex 1.71
#
DISCID=c50ffc0d
DTITLE=Duo Grace - Alexander and Anna Berezhny - Let's Be Happy
DYEAR=2013
DGENRE=Jazz
TTITLE0=Let's Be Happy
TTITLE1=Ich Will Den Herrn Loben Alle Zeit (Ps.34)
TTITLE2=Talmidim
TTITLE3=Meditation (Ps.1)
TTITLE4=Simcha
TTITLE5=Anetshka
TTITLE6=Sing For Joy (Ps.33) (Rus. Version]
TTITLE7=The Praise
TTITLE8=When I See Your Heavens (Ps.8)
TTITLE9=Song Of Solomon
TTITLE10=Yeah!
TTITLE11=Shalom
TTITLE12=Shechina
EXTD=YEAR: 2013
EXTT0=
EXTT1=
EXTT2=
EXTT3=
EXTT4=
EXTT5=
EXTT6=
EXTT7=
EXTT8=
EXTT9=
EXTT10=
EXTT11=
EXTT12=
PLAYORDER=
